<svg xmlns="http://www.w3.org/2000/svg" width="96" height="112" viewBox="0 0 96 112"><defs><linearGradient id="rim" x2=".8" y2="1"><stop stop-color="#FFF4CA"/><stop offset=".48" stop-color="#E0AD46"/><stop offset="1" stop-color="#FFE599"/></linearGradient><linearGradient id="face" x2=".7" y2="1"><stop stop-color="#E0AD46"/><stop offset="1" stop-color="#745015"/></linearGradient></defs><path d="M25 44L3 27L10 49L20 58L5 49L12 69L25 75L11 71L23 91L33 88M71 44L93 27L86 49L76 58L91 49L84 69L71 75L85 71L73 91L63 88" fill="url(#rim)" stroke="#745015" stroke-width="1.5" stroke-linejoin="round"/><path d="M48 7L55 15L48 23L41 15Z" fill="#FFF4CA" stroke="#E0AD46" stroke-width="1.5"/><path d="M48 16L80 30V70L71 86L48 104L25 86L16 70V30Z" fill="url(#rim)" stroke="#745015" stroke-width="1.5" stroke-linejoin="round"/><path d="M48 24L73 35V68L65 81L48 95L31 81L23 68V35Z" fill="url(#face)" stroke="#FFF4CA" stroke-opacity=".8" stroke-width="1.5"/><path d="M27 38L48 29L69 38M27 63V39" fill="none" stroke="#FFF4CA" stroke-opacity=".38" stroke-width="2"/><g fill="#FFF4CA" fill-rule="evenodd"><path d="M5 0H20V5H7L5 7V10L8 12H14L20 17V23L15 28H0V23H13L15 21V19L12 17H6L0 12V5Z" transform="translate(37.5 42)"/></g><path d="M45.5 81h5l-2.5 4Z" fill="#FFE599"/><path d="M32 92L48 104L64 92" fill="none" stroke="#FFF4CA" stroke-opacity=".65" stroke-width="1.5"/></svg>
